<svg id="Layer_1" data-name="Layer 1" xmlns="http://www.w3.org/2000/svg" viewBox="0 0 475.09 532.6"><defs><style>.cls-1{fill:#fff;}.cls-2{fill:#00a14a;}</style></defs><title>icone logo</title><path class="cls-1" d="M772.14,540.47c0,7.45-.38,14.8-1.1,22a217.81,217.81,0,0,1-16.75,64.54l-8.71,18-211,266.84L323.61,645l-8.72-18a218.86,218.86,0,0,1,8.82-191.3c21.29-33.65,57.08-56.5,100.84-56.5,48.28.49,91.36,28.52,108.67,70.71,18.51-42.4,62.41-70.27,111.33-70.71,43.76,0,79.52,22.77,100.82,56.3a218.78,218.78,0,0,1,26.77,104.91Z" transform="translate(-297.04 -379.26)"/><path class="cls-2" d="M537.67,848.83,381.44,651.22l-6.8-14A163.46,163.46,0,0,1,368,526.31a164.59,164.59,0,0,1,13.23-31.92l.37-.65c17.91-28.29,46.93-44.51,79.62-44.51,30.95.31,58.82,14.66,75.73,37.84,17.51-23.21,45.92-37.56,77-37.84,32.77,0,61.78,16.17,79.69,44.36l.38.65a164.93,164.93,0,0,1,13.37,32.28l-21.67,6.37a142.35,142.35,0,0,0-11.36-27.5c-13.69-21.34-35.65-33.57-60.31-33.57-29.55.27-55.89,16.89-67,42.36l-10.67,24.45-10.13-24.69c-10.38-25.29-36-41.82-65.17-42.12-24.55,0-46.52,12.28-60.21,33.69a140.75,140.75,0,0,0-17,67A141.17,141.17,0,0,0,395.28,628l5.41,11.14,137,173.23L668,647.17H598.34v-22.6H714.55Z" transform="translate(-297.04 -379.26)"/></svg>