<svg id="Layer_1" data-name="Layer 1" xmlns="http://www.w3.org/2000/svg" xmlns:xlink="http://www.w3.org/1999/xlink" viewBox="0 0 493.43 493.43"><defs><style>.cls-1{fill:#fff;}.cls-2{fill:url(#linear-gradient);}</style><linearGradient id="linear-gradient" x1="179.88" y1="316.69" x2="179.88" y2="339.12" gradientTransform="matrix(22, 0, 0, -22, -3701.95, 7472.11)" gradientUnits="userSpaceOnUse"><stop offset="0" stop-color="#ffd75b"/><stop offset="1" stop-color="#fa9d44"/></linearGradient></defs><title>moeda</title><path id="Path" class="cls-1" d="M255.29,11.35a242.73,242.73,0,0,1,125.12,33.8,233.84,233.84,0,0,1,87.76,87.76A242.67,242.67,0,0,1,502,258.06a242.74,242.74,0,0,1-33.8,125.13A233.91,233.91,0,0,1,380.44,471a242.57,242.57,0,0,1-125.15,33.82A242.55,242.55,0,0,1,130.16,471,238.25,238.25,0,0,1,42.4,382.61,241.56,241.56,0,0,1,8.58,258.06,246.84,246.84,0,0,1,130.74,45.15,241.67,241.67,0,0,1,255.29,11.35Z" transform="translate(-8.57 -11.35)"/><path id="stars_-_material" data-name="stars - material" class="cls-2" d="M255.29,504.77A243.81,243.81,0,0,1,130.16,471,239.28,239.28,0,0,1,42.4,382.61,246.72,246.72,0,0,1,255.29,11.35a243.58,243.58,0,0,1,125.12,33.8,234.77,234.77,0,0,1,87.79,87.76,248.56,248.56,0,0,1,0,250.28A234.83,234.83,0,0,1,380.41,471,243.58,243.58,0,0,1,255.29,504.77Zm0-161.3h0l104.35,62.8-27.85-119,92.54-80.05L302.74,196.39,255.29,85.5,207.85,197.64,86.27,207.15l92.51,80.07L150.91,406.31Z" transform="translate(-8.57 -11.35)"/></svg>