<svg id="Layer_1" data-name="Layer 1" xmlns="http://www.w3.org/2000/svg" xmlns:xlink="http://www.w3.org/1999/xlink" viewBox="0 0 464.08 464.09"><defs><style>.cls-1{fill:none;}.cls-2{clip-path:url(#clip-path);}.cls-3{fill:url(#linear-gradient);}.cls-4{fill:#fff;}</style><clipPath id="clip-path" transform="translate(-17.96 -23.96)"><rect class="cls-1" x="17.96" y="23.96" width="464.08" height="464.08"/></clipPath><linearGradient id="linear-gradient" x1="176" y1="325.07" x2="176" y2="340.53" gradientTransform="matrix(30, 0, 0, -30, -5030.09, 10240.22)" gradientUnits="userSpaceOnUse"><stop offset="0" stop-color="#00e6b4"/><stop offset="1" stop-color="#18c9e3"/></linearGradient></defs><title>tempo</title><g class="cls-2"><g id="app_missions_icons_time" data-name="app missions icons time"><g id="Group_6" data-name="Group 6"><path id="Path" class="cls-3" d="M250,24A228.24,228.24,0,0,1,367.69,55.75a220,220,0,0,1,82.56,82.56A228.24,228.24,0,0,1,482,256a228.24,228.24,0,0,1-31.79,117.69,219.88,219.88,0,0,1-82.56,82.56A228.24,228.24,0,0,1,250,488a228.24,228.24,0,0,1-117.69-31.79,224,224,0,0,1-82.56-83.12A227.21,227.21,0,0,1,18,256,232.19,232.19,0,0,1,132.87,55.75,227.24,227.24,0,0,1,250,24Z" transform="translate(-17.96 -23.96)"/><path id="timer_-_material" data-name="timer - material" class="cls-4" d="M250,383.3a115.74,115.74,0,0,1-59.24-16,117.55,117.55,0,0,1,0-203.14,115.77,115.77,0,0,1,59.24-16,113.33,113.33,0,0,1,39.54,7.22,130.39,130.39,0,0,1,33.87,19.14l18.5-19.14a157.25,157.25,0,0,1,18.56,18.57L341.89,193a118.42,118.42,0,0,1,18.79,33.46,113.23,113.23,0,0,1,6.9,39.2,115.8,115.8,0,0,1-16,59.26,118.08,118.08,0,0,1-42.31,42.31A115.76,115.76,0,0,1,250,383.3Zm0-208.84a90.31,90.31,0,0,0-46.09,12.24,91.9,91.9,0,0,0,0,158.34,90.93,90.93,0,0,0,92.19,0A91.52,91.52,0,0,0,329,311.81a93,93,0,0,0,0-92.19,92.08,92.08,0,0,0-32.92-32.92A90.33,90.33,0,0,0,250,174.46ZM262.84,279.2H237.16V200.81h25.69v78.38Zm26.3-143.86H210.82V108.93H289.2v26.3Z" transform="translate(-17.96 -23.96)"/></g></g></g></svg>